<?xml version="1.0" encoding="UTF-8"?>
<svg id="Capa_1" xmlns="http://www.w3.org/2000/svg" viewBox="0 0 2000 2000">
  <defs>
    <style>
      .cls-1 {
        fill: #fff;
      }
    </style>
  </defs>
  <g>
    <path class="cls-1" d="M344.45,1631.2c-13.54-6.34-30.48-9.49-50.86-9.49h-35.91v84.59h22.5v-59.08h13.91c15.79,0,28.7,2.21,38.79,6.64,10.06,4.39,17.5,11,22.29,19.78,4.83,8.78,7.21,19.95,7.21,33.49s-2.35,25.41-7.04,34.63c-4.69,9.22-11.7,16.16-21.06,20.72-9.35,4.59-21.12,6.91-35.33,6.91h-71.99c-15.32,0-28.03-2.28-38.15-6.81-10.13-4.53-17.74-11.33-22.83-20.38-5.09-9.09-7.64-20.42-7.64-34.06,0-10.19,1.84-19.11,5.53-26.79,3.72-7.64,9.25-14.08,16.63-19.28,7.38-5.2,16.66-9.25,27.86-12.17v-26.18c-16.23,3.15-29.67,8.35-40.37,15.62-10.69,7.28-18.71,16.6-24.07,28-5.37,11.43-8.05,25.01-8.05,40.8,0,19.01,3.35,34.83,10.06,47.47,6.71,12.64,16.8,22.13,30.28,28.43,13.48,6.34,30.41,9.49,50.76,9.49h71.99c19.14,0,35.07-3.18,47.74-9.55,12.71-6.37,22.26-15.96,28.63-28.77,6.37-12.81,9.55-28.83,9.55-48.08s-3.35-34.87-10.06-47.51c-6.7-12.64-16.83-22.13-30.38-28.43Z"/>
    <path class="cls-1" d="M382.37,1391.81l-106.89,56.32c-1.34-4.31-2.93-8.48-5.03-12.36-5.84-10.73-14.08-19.04-24.78-24.91-10.66-5.87-23-8.82-36.98-8.82s-26.32,2.95-37.01,8.82c-10.66,5.87-18.94,14.15-24.74,24.84-5.83,10.66-8.72,23.07-8.72,37.15v96.83h244.15v-24.17h-103.19v-72.65s0-.08,0-.11l103.2-52.05v-28.87ZM160.69,1545.5v-73.99c0-9.15,2.01-17.2,5.97-24.07,3.95-6.87,9.59-12.2,16.86-15.96,7.28-3.72,15.66-5.6,25.18-5.6,9.49.1,17.9,2.05,25.18,5.77,7.24,3.76,12.87,9.09,16.86,15.96,3.96,6.87,5.94,14.85,5.94,23.91v73.99h-95.99Z"/>
    <path class="cls-1" d="M345.36,1193.73c-13.14-6.34-29.67-9.49-49.58-9.49h-157.38v24.17h158.55c21.39,0,37.42,5.13,48.08,15.42,10.69,10.29,16.03,25.75,16.03,46.33s-5.33,35.94-16.03,46.13c-10.66,10.19-26.69,15.26-48.08,15.26h-158.55v24.17h157.38c19.92,0,36.44-3.15,49.58-9.49,13.14-6.3,23.04-15.79,29.64-28.43,6.61-12.64,9.89-28.53,9.89-47.64s-3.28-35.07-9.89-47.84c-6.6-12.74-16.49-22.3-29.64-28.6Z"/>
    <path class="cls-1" d="M278.4,997.63c-6.2-11.06-14.92-19.65-26.15-25.75-11.27-6.1-24.27-9.15-39.03-9.15s-27.96,3.05-39.26,9.15c-11.3,6.1-20.05,14.69-26.29,25.75-6.2,11.06-9.29,23.9-9.29,38.42v94.48h243.98v-24.17h-94.65v-70.31c0-14.52-3.08-27.36-9.32-38.42ZM160.86,1034.88c0-9.49,2.18-17.9,6.54-25.18,4.39-7.24,10.49-12.87,18.41-16.86,7.88-3.96,17.03-5.93,27.42-5.93s19.35,1.98,27.19,5.93c7.81,3.99,13.91,9.62,18.27,16.86,4.36,7.28,6.54,15.69,6.54,25.18v71.48h-104.37v-71.48Z"/>
    <path class="cls-1" d="M343.62,763.54c-13.45-6.71-29.64-10.06-48.68-10.06h-69.13c-19.01,0-35.24,3.35-48.65,10.06-13.44,6.74-23.67,16.5-30.71,29.3-7.04,12.81-10.56,28.26-10.56,46.4s3.52,33.59,10.56,46.4c7.04,12.81,17.27,22.56,30.71,29.27,13.41,6.71,29.64,10.06,48.65,10.06h69.13c19.04,0,35.24-3.35,48.68-10.06,13.41-6.71,23.67-16.46,30.71-29.27,7.04-12.81,10.56-28.3,10.56-46.4s-3.52-33.59-10.56-46.4c-7.04-12.81-17.3-22.56-30.71-29.3ZM354.61,872.54c-5.2,9.22-12.77,16.26-22.66,21.05-9.89,4.83-21.83,7.24-35.84,7.24h-71.48c-13.98,0-25.92-2.41-35.81-7.24-9.92-4.79-17.47-11.83-22.66-21.05-5.2-9.22-7.81-20.32-7.81-33.29s2.62-24.11,7.81-33.33c5.2-9.22,12.74-16.23,22.66-21.05,9.89-4.79,21.83-7.21,35.81-7.21h71.48c14.01,0,25.95,2.41,35.84,7.21,9.89,4.83,17.47,11.83,22.66,21.05,5.2,9.22,7.78,20.35,7.78,33.33s-2.58,24.07-7.78,33.29Z"/>
    <path class="cls-1" d="M382.37,563.18h-98.17v-27.9l98.17-55.02v-55.69l-100.6,58.35c-1.51-5.69-3.69-11.03-6.62-16-6.04-10.23-14.58-18.14-25.61-23.74-11-5.6-23.77-8.38-38.32-8.38s-27.33,2.78-38.36,8.38c-11,5.6-19.55,13.48-25.58,23.67-6.04,10.19-9.05,21.99-9.05,35.4v106.89h244.15v-45.97ZM182.52,505.95c0-4.79,1.17-8.99,3.52-12.57,2.35-3.59,5.7-6.37,10.06-8.31,4.36-1.94,9.42-2.95,15.12-2.95,5.7.13,10.73,1.17,15.09,3.12,4.36,1.94,7.74,4.73,10.09,8.31,2.35,3.59,3.52,7.71,3.52,12.41v57.23h-57.4v-57.23Z"/>
    <polygon class="cls-1" points="382.37 339.15 283.54 339.15 283.54 251.55 382.37 251.55 382.37 205.58 138.4 205.58 138.4 251.55 239.25 251.55 239.25 339.15 138.4 339.15 138.4 385.12 382.37 385.12 382.37 339.15"/>
  </g>
  <g>
    <path class="cls-1" d="M1595.34,1021.06c56.64-35.89,101.83-83.83,134.38-145.09,35.67-67.28,53.54-145.36,53.54-234.15s-17.87-165.77-53.54-233.06c-35.75-67.28-85.84-119.31-150.34-156.07-64.5-36.76-139.46-55.14-224.7-55.14h-208.5l449.17,823.5Z"/>
    <polygon class="cls-1" points="924.78 889.25 1366.02 889.25 988.74 197.55 961.29 197.55 806.83 197.55 577.25 197.55 547.48 197.55 924.78 889.25"/>
    <polygon class="cls-1" points="556.38 502.48 556.38 1802.45 808.62 1802.45 843.66 1802.45 888.31 1802.45 940.43 1802.45 1265.46 1802.45 556.38 502.48"/>
    <polygon class="cls-1" points="1441.4 1027.44 1000.15 1027.44 1422.89 1802.45 1572.36 1802.45 1722.34 1802.45 1864.12 1802.45 1441.4 1027.44"/>
  </g>
</svg>