<?xml version="1.0" encoding="UTF-8"?>
<svg id="Capa_1" xmlns="http://www.w3.org/2000/svg" viewBox="0 0 2000 2000">
  <defs>
    <style>
      .cls-1 {
        fill: #fff;
      }
    </style>
  </defs>
  <g>
    <path class="cls-1" d="M1196.6,785.43c26.66-16.9,47.93-39.46,63.26-68.3,16.79-31.67,25.2-68.43,25.2-110.22s-8.41-78.03-25.2-109.71c-16.83-31.67-40.41-56.16-70.77-73.47-30.36-17.31-65.65-25.96-105.78-25.96h-98.15l211.44,387.65Z"/>
    <polygon class="cls-1" points="880.94 723.38 1088.65 723.38 911.05 397.77 898.13 397.77 825.42 397.77 717.35 397.77 703.34 397.77 880.94 723.38"/>
    <polygon class="cls-1" points="707.53 541.31 707.53 1153.25 826.26 1153.25 842.76 1153.25 863.78 1153.25 888.31 1153.25 1041.31 1153.25 707.53 541.31"/>
    <polygon class="cls-1" points="1124.13 788.43 916.42 788.43 1115.42 1153.25 1185.78 1153.25 1256.38 1153.25 1323.12 1153.25 1124.13 788.43"/>
  </g>
  <g>
    <path class="cls-1" d="M310.68,1651.36c6.92-14.78,10.36-33.26,10.36-55.5v-39.19h-92.31v24.55h64.47v15.18c0,17.23-2.41,31.32-7.24,42.34-4.79,10.98-12,19.1-21.59,24.33-9.59,5.27-21.77,7.87-36.55,7.87s-27.73-2.56-37.8-7.68c-10.06-5.12-17.64-12.77-22.61-22.98-5.01-10.21-7.54-23.05-7.54-38.56v-78.56c0-16.72,2.49-30.59,7.43-41.64,4.94-11.05,12.37-19.36,22.25-24.92,9.91-5.56,22.28-8.34,37.17-8.34,11.12,0,20.86,2.01,29.23,6.04,8.34,4.06,15.37,10.1,21.04,18.15,5.67,8.05,10.1,18.19,13.28,30.41h28.58c-3.44-17.71-9.11-32.38-17.05-44.05-7.94-11.67-18.11-20.41-30.55-26.27-12.48-5.86-27.29-8.78-44.53-8.78-20.75,0-38.02,3.66-51.81,10.98-13.79,7.32-24.15,18.33-31.03,33.04-6.92,14.71-10.35,33.19-10.35,55.4v78.56c0,20.89,3.48,38.27,10.43,52.1,6.95,13.87,17.42,24.29,31.39,31.25,13.98,6.95,31.47,10.43,52.47,10.43s38.05-3.66,51.85-10.98c13.79-7.32,24.15-18.37,31.03-33.15Z"/>
    <path class="cls-1" d="M571.93,1692.74l-61.46-116.65c4.7-1.47,9.26-3.2,13.49-5.48,11.71-6.37,20.78-15.37,27.19-27.04,6.4-11.64,9.62-25.1,9.62-40.36s-3.22-28.72-9.62-40.39c-6.4-11.64-15.44-20.67-27.11-27-11.64-6.37-25.17-9.51-40.54-9.51h-105.67v266.44h26.38v-112.62h79.29s.08,0,.12,0l56.81,112.62h31.5ZM404.21,1450.82h80.75c9.99,0,18.77,2.19,26.27,6.51,7.5,4.31,13.32,10.46,17.42,18.4,4.06,7.94,6.11,17.09,6.11,27.48-.11,10.36-2.23,19.54-6.29,27.48-4.1,7.9-9.92,14.05-17.42,18.4-7.5,4.32-16.21,6.48-26.09,6.48h-80.75v-104.75Z"/>
    <path class="cls-1" d="M788.1,1652.35c6.92-14.34,10.36-32.38,10.36-54.11v-171.75h-26.38v173.03c0,23.34-5.6,40.83-16.83,52.47-11.23,11.67-28.1,17.49-50.57,17.49s-39.22-5.82-50.35-17.49c-11.12-11.64-16.65-29.13-16.65-52.47v-173.03h-26.38v171.75c0,21.73,3.44,39.77,10.36,54.11,6.88,14.35,17.23,25.14,31.03,32.35,13.79,7.21,31.14,10.79,51.99,10.79s38.27-3.58,52.21-10.79c13.9-7.21,24.33-18,31.21-32.35Z"/>
    <path class="cls-1" d="M1002.1,1579.28c12.07-6.77,21.44-16.28,28.1-28.54,6.66-12.29,9.99-26.49,9.99-42.59s-3.33-30.51-9.99-42.84c-6.66-12.33-16.03-21.88-28.1-28.69-12.07-6.77-26.09-10.13-41.93-10.13h-103.11v266.25h26.38v-103.29h76.73c15.84,0,29.86-3.37,41.93-10.17ZM961.45,1451c10.36,0,19.54,2.38,27.48,7.14,7.9,4.79,14.05,11.45,18.4,20.09,4.32,8.6,6.48,18.59,6.48,29.93s-2.16,21.11-6.48,29.67c-4.35,8.53-10.5,15.18-18.4,19.94-7.94,4.76-17.12,7.14-27.48,7.14h-78.01v-113.9h78.01Z"/>
    <path class="cls-1" d="M1257.57,1650.45c7.32-14.67,10.98-32.35,10.98-53.13v-75.45c0-20.75-3.66-38.45-10.98-53.09-7.35-14.67-18-25.83-31.98-33.51-13.98-7.68-30.84-11.53-50.64-11.53s-36.66,3.84-50.64,11.53c-13.98,7.68-24.62,18.84-31.94,33.51-7.32,14.64-10.98,32.35-10.98,53.09v75.45c0,20.78,3.66,38.45,10.98,53.13,7.32,14.63,17.96,25.83,31.94,33.52,13.98,7.68,30.88,11.52,50.64,11.52s36.66-3.84,50.64-11.52c13.98-7.68,24.62-18.88,31.98-33.52ZM1138.62,1662.45c-10.06-5.67-17.75-13.94-22.98-24.73-5.27-10.79-7.9-23.82-7.9-39.11v-78.01c0-15.26,2.63-28.28,7.9-39.08,5.23-10.83,12.92-19.06,22.98-24.73,10.06-5.67,22.17-8.53,36.33-8.53s26.31,2.86,36.37,8.53c10.06,5.67,17.71,13.9,22.98,24.73,5.23,10.79,7.87,23.82,7.87,39.08v78.01c0,15.29-2.63,28.32-7.87,39.11-5.27,10.79-12.92,19.06-22.98,24.73-10.06,5.67-22.21,8.49-36.37,8.49s-26.27-2.82-36.33-8.49Z"/>
    <path class="cls-1" d="M1476.22,1692.74v-107.13h30.44l60.04,107.13h60.77l-63.67-109.79c6.2-1.64,12.04-4.03,17.46-7.22,11.16-6.59,19.79-15.91,25.9-27.95,6.11-12,9.15-25.94,9.15-41.82s-3.04-29.82-9.15-41.86c-6.11-12-14.71-21.33-25.83-27.92-11.12-6.59-24-9.88-38.64-9.88h-116.65v266.44h50.16ZM1538.68,1474.64c5.23,0,9.81,1.28,13.72,3.84,3.92,2.56,6.95,6.22,9.07,10.98,2.12,4.76,3.22,10.28,3.22,16.5-.15,6.22-1.28,11.71-3.4,16.46-2.12,4.76-5.16,8.45-9.07,11.01-3.92,2.56-8.42,3.84-13.54,3.84h-62.46v-62.64h62.46Z"/>
    <polygon class="cls-1" points="1720.71 1692.74 1720.71 1584.88 1816.31 1584.88 1816.31 1692.74 1866.48 1692.74 1866.48 1426.49 1816.31 1426.49 1816.31 1536.55 1720.71 1536.55 1720.71 1426.49 1670.55 1426.49 1670.55 1692.74 1720.71 1692.74"/>
  </g>
</svg>